# File produced by Open Asset Import Library (http://www.assimp.sf.net)
# (assimp v3.1.187496374)

mtllib upvote.obj.mtl

# 14 vertex positions
v  0 39.5 5
v  28 16.5 5
v  0 39.5 -5
v  28 16.5 -5
v  11.5 -16.5 5
v  -11.5 16.5 5
v  -11.5 -16.5 5
v  11.5 16.5 5
v  -28 16.5 5
v  -28 16.5 -5
v  -11.5 16.5 -5
v  11.5 16.5 -5
v  11.5 -16.5 -5
v  -11.5 -16.5 -5

# 0 UV coordinates

# 7 vertex normals
vn 0.634739 0.772726 0
vn 0 0 1
vn -0.634739 0.772726 0
vn 0 0 -1
vn 0 -1 0
vn 1 0 0
vn -1 0 0

# Mesh 'OpenSCAD_Model' with 24 faces
g OpenSCAD_Model
usemtl DefaultMaterial
f  1//1 2//1 3//1
f  3//1 2//1 4//1
f  5//2 6//2 7//2
f  8//2 6//2 5//2
f  9//2 6//2 1//2
f  1//2 6//2 8//2
f  1//2 8//2 2//2
f  9//3 1//3 10//3
f  10//3 1//3 3//3
f  3//4 11//4 10//4
f  3//4 4//4 12//4
f  12//4 11//4 3//4
f  12//4 13//4 11//4
f  11//4 13//4 14//4
f  12//5 4//5 2//5
f  8//5 12//5 2//5
f  10//5 11//5 6//5
f  9//5 10//5 6//5
f  13//6 12//6 8//6
f  5//6 13//6 8//6
f  14//5 13//5 5//5
f  7//5 14//5 5//5
f  7//7 6//7 14//7
f  14//7 6//7 11//7

